<?xml version="1.0" encoding="utf-8"?>
<!-- Generator: Adobe Illustrator 22.1.0, SVG Export Plug-In . SVG Version: 6.00 Build 0)  -->
<svg version="1.1" id="layer_1" xmlns="http://www.w3.org/2000/svg" xmlns:xlink="http://www.w3.org/1999/xlink" x="0px" y="0px"
	 viewBox="0 0 1400 1400" style="enable-background:new 0 0 1400 1400;" xml:space="preserve">
<style type="text/css">
	.st0{fill:#FFFFFF;}
	.st1{fill:#F6E8A9;}
	.st2{fill:#CE8720;}
	.st3{fill:#EDAC45;}
	.st4{fill:#F5B89C;}
	.st5{fill:#0D427C;}
	.st6{fill:#175584;}
	.st7{fill:#E89270;}
	.st8{fill:#092844;}
	.st9{fill:#133356;}
	.st10{fill:#42230F;}
	.st11{fill:#277C96;}
	.st12{fill:#1C0F07;}
	.st13{fill:#AF3E2C;}
	.st14{fill:#AF2323;}
	.st15{fill:#283951;}
	.st16{fill:#2D4656;}
	.st17{fill:#CB2227;}
	.st18{fill:#DB8361;}
	.st19{fill:#914500;}
	.st20{fill:#A85604;}
	.st21{fill:#324E5A;}
	.st22{fill:#C15436;}
	.st23{fill:#CC6646;}
	.st24{fill:#3B6166;}
	.st25{fill:#4C8986;}
	.st26{fill:#CE7024;}
	.st27{fill:#8E5C45;}
	.st28{fill:#D36F50;}
	.st29{fill:#3A6847;}
	.st30{fill:#50775C;}
	.st31{fill:#23424C;}
</style>
<g>
	<rect x="0" class="st0" width="1400" height="1400"/>
	<g>
		<path class="st1" d="M699.9,183.4c-345.3,0-625.2,279.9-625.2,625.2c0,155.9,57.1,298.5,151.4,408h947.5
			c94.4-109.5,151.4-252.1,151.4-408C1325.1,463.3,1045.2,183.4,699.9,183.4z"/>
		<g>
			<g>
				<g>
					<rect x="325.7" y="1133.3" class="st2" width="145.3" height="10.7"/>
					<g>
						<polygon class="st3" points="311.1,1216.6 319.8,1216.6 363.4,917.5 338.6,917.5 						"/>
						<polygon class="st3" points="433.2,917.5 476.8,1216.6 485.5,1216.6 458,917.5 						"/>
					</g>
					<rect x="311.1" y="909.8" class="st2" width="174.3" height="29.4"/>
				</g>
				<path class="st4" d="M669.1,552.9l-31.9,9.5l1.6-4.5c1.7-4.8,0.2-10.2-3.9-13.3l-8.1,9.2c-3.7,4.1-5.9,9.3-6.5,14.8v0
					c-0.4,4.2-1.9,8.2-4.2,11.7l-62.2,95.4l-26.5-33l-40.8,31.9L526,724c6,7.6,15,12.4,24.6,12.9c13.8,0.6,26.1-7.4,31.5-19.6
					l58.1-132.6l35.1-13.6c3.7-1.4,6.1-5,6.1-9C681.5,555.6,675.3,551,669.1,552.9z"/>
				<path class="st5" d="M455.8,588.9L455.8,588.9c-13.3,9.5-16.4,27.9-6.9,41.1l39.3,55.1l48-34.3L497,595.8
					C487.5,582.5,469.1,579.4,455.8,588.9z"/>
				<path class="st6" d="M414.8,546.4L414.8,546.4c-49.2,0-89.1,39.9-89.1,89.1l-16.5,188.3h178.3l16.5-188.3
					C503.9,586.3,464,546.4,414.8,546.4z"/>
				<g>
					<g>
						<path class="st5" d="M655.7,1098.5l-26.8-8.2l-34.4,1.7c-1.2,3.8-1.3,8.4-1.3,12.4v4.9c0,3.1,2.5,5.6,5.6,5.6h65.3
							c1.5,0,2.7-1.2,2.7-2.7C666.7,1105.6,662.1,1099.9,655.7,1098.5z"/>
						<path class="st7" d="M566.2,1021.3l29.5,71.6c11.5,7.1,23.3,8.1,35.3,0l-21.1-71.6H566.2z"/>
						<path class="st8" d="M524.1,823.8H337.3v0c0,47.5,38.5,86.1,86.1,86.1h90.2L578,1067h47.5l-54.8-207.3
							C565.2,838.5,546,823.8,524.1,823.8z"/>
					</g>
					<g>
						<path class="st6" d="M627.6,1098.5l-26.8-8.2l-34.4,1.7c-1.2,3.8-1.3,8.4-1.3,12.4v4.9c0,3.1,2.5,5.6,5.6,5.6H636
							c1.5,0,2.7-1.2,2.7-2.7C638.6,1105.6,634,1099.9,627.6,1098.5z"/>
						<path class="st4" d="M538.1,1021.3l29.5,71.6c11.5,7.1,23.3,8.1,35.3,0l-21.1-71.6H538.1z"/>
						<path class="st9" d="M496,823.8H309.2v0c0,47.5,38.5,86.1,86.1,86.1h90.2l64.5,157.2h47.5l-54.8-207.3
							C537.1,838.5,517.9,823.8,496,823.8z"/>
					</g>
				</g>
				<path class="st10" d="M396.9,497.7c0,0,0-0.1,0-0.1c0-9.7-7.9-17.6-17.6-17.6c-9.7,0-17.6,7.9-17.6,17.6c0,9,6.8,16.4,15.5,17.5
					c0,0,0,0.1,0,0.1c0,9.7,7.9,17.6,17.6,17.6c9.7,0,17.6-7.9,17.6-17.6C412.4,506.2,405.6,498.8,396.9,497.7z"/>
				<g>
					<path class="st7" d="M400.9,559.1c0,20.6,16.7,37.4,37.4,37.4h0c7.6,0,13.8-6.2,13.8-13.8V482.5h-51.2V559.1z"/>
					<path class="st4" d="M382.4,482.5L382.4,482.5c-7.9,0-14.4,6.4-14.4,14.4v0c0,7.9,6.4,14.4,14.4,14.4h0
						c7.9,0,14.4-6.4,14.4-14.4v0C396.8,488.9,390.3,482.5,382.4,482.5z"/>
					<path class="st4" d="M434,432.4L434,432.4c-27.2,0-49.2,22-49.2,49.2v21.7c0,27.2,22,49.2,49.2,49.2h0
						c27.2,0,49.2-22,49.2-49.2v-21.7C483.2,454.4,461.2,432.4,434,432.4z"/>
				</g>
				<g>
					<path class="st4" d="M514.7,746.6l-31.5-19.1c-3.1-1.9-6.8-2.5-10.4-1.9l-19.2,3.7l-119.1-16.5l18.5-38.1l-46.2-23.3
						l-28.2,57.3c-5,10.2-4.4,22.3,1.6,32h0c6.2,9.8,17.1,15.7,28.7,15.4l144.7-4l8.2,1.6c2.7,0.5,5.6,0.5,8.3-0.2h0
						c6-1.5,12.3-1.2,18.2,0.8c3.4,1.2,6.9,1.8,10.4,1.8H512c0.8,0,1.7-0.2,2.4-0.6C517.9,753.6,518,748.7,514.7,746.6z"/>
					<path class="st11" d="M368.1,584.7L368.1,584.7c-14.7-7.1-32.3-1-39.4,13.6l-29.6,60.9l53.1,25.8l29.6-60.9
						C388.9,609.5,382.8,591.9,368.1,584.7z"/>
				</g>
				<path class="st10" d="M490.8,454.5c0.3-1.3,0.5-2.6,0.5-4c0-7.2-4.3-13.4-10.4-16.3c0.7-1.9,1-4,1-6.1
					c0-10.5-8.5-19.1-19.1-19.1c-2.2,0-4.4,0.4-6.3,1.1c-4.1-8.3-12.6-14-22.5-14s-18.4,5.7-22.5,14c-2-0.7-4.1-1.1-6.3-1.1
					c-10,0-18.2,7.7-19,17.4c-10.3,0.7-18.4,9.2-18.4,19.6c0,3.4,0.9,6.6,2.4,9.4c-6.2,3.3-10.5,9.9-10.5,17.4
					c0,10.9,8.8,19.7,19.7,19.7c1.5,0,3-0.2,4.4-0.5v10.3c0,3.1,2.5,5.6,5.6,5.6s5.6-2.5,5.6-5.6v-17.4c2.6-3.3,4.2-7.5,4.2-12.1
					c0-1.6-0.2-3.2-0.6-4.7c6.3-1.3,11.3-5.8,13.4-11.8c2.7,1.5,5.9,2.4,9.2,2.4c5,0,9.6-2,13-5.2c3.4,3.2,7.9,5.2,13,5.2
					c3.3,0,6.5-0.9,9.2-2.4c2.1,6.2,7.5,10.8,14,11.9c0.2,7.9,6.7,14.2,14.6,14.2c8.1,0,14.6-6.6,14.6-14.6
					C499.5,461.9,495.9,456.8,490.8,454.5z"/>
				<g>
					<g>
						<circle class="st12" cx="430" cy="484.3" r="5.4"/>
						<circle class="st12" cx="464.5" cy="484.3" r="5.4"/>
						<path class="st13" d="M450,488.6c0-1.1-0.9-2-2-2s-2,0.9-2,2c0,3.7,2.1,8.2,3.9,12.2c0.9,2,2.2,4.8,2.2,5.6
							c-0.2,1.2-2.3,3-7.7,4.1c-1.1,0.2-1.8,1.3-1.6,2.4c0.2,0.9,1,1.6,2,1.6c0.1,0,0.3,0,0.4,0c6.5-1.3,10.2-3.9,10.8-7.3
							c0.3-1.7-0.7-4-2.5-7.9C452,495.8,450,491.5,450,488.6z"/>
					</g>
					<path class="st14" d="M430,522c0,7.7,6.2,13.9,13.9,13.9c10.5,0,19.1-8.5,19.1-19.1h-33V522z"/>
				</g>
			</g>
			<g>
				<path class="st15" d="M942.9,588.9L942.9,588.9c-13.3-9.5-31.7-6.4-41.1,6.9l-39.3,55.1l48,34.3l39.3-55.1
					C959.2,616.8,956.1,598.3,942.9,588.9z"/>
				<g>
					<g>
						<g>
							
								<rect x="872.9" y="639.8" transform="matrix(0.5798 -0.8148 0.8148 0.5798 -176.6728 1001.5935)" class="st16" width="19.5" height="64.5"/>
						</g>
					</g>
				</g>
				<g>
					<g>
						<g>
							<path class="st17" d="M1021.1,1099.9c-2.8-2.8-6.1-6-9.7-7.9l-25.5,23.1l-13.1,24.7c-3.6,5.6-2.8,12.9,1.9,17.5h0
								c1,1,2.7,1,3.8,0l46.1-46.1c2.2-2.2,2.2-5.7,0-7.9L1021.1,1099.9z"/>
							<path class="st18" d="M937.8,1024.2l48.4,94.2c14.3-2.8,21.9-11.8,25-25l-42.4-100.1L937.8,1024.2z"/>
							<path class="st19" d="M1003.6,720.4L871.5,852.5c-15.5,15.5-18.6,39.5-7.6,58.4l76.4,131.4l39.8-39.8l-40.4-96.5l63.8-63.8
								C1037.2,808.5,1037.2,754,1003.6,720.4L1003.6,720.4z"/>
						</g>
					</g>
					<g>
						<path class="st20" d="M980,988.6c-0.9-2.2-3.8-2.8-5.5-1.1l-42.7,42.7c-1.1,1.1-1.3,2.8-0.5,4.1l7.8,13.4
							c1.1,1.9,3.7,2.3,5.3,0.7l41.1-41.1c1-1,1.3-2.4,0.7-3.7L980,988.6z"/>
					</g>
				</g>
				<g>
					<rect x="893.1" y="1133.3" class="st2" width="145.3" height="10.7"/>
					<g>
						<polygon class="st3" points="1000.6,917.5 1044.3,1216.6 1052.9,1216.6 1025.4,917.5 						"/>
						<polygon class="st3" points="878.6,1216.6 887.2,1216.6 930.9,917.5 906.1,917.5 						"/>
					</g>
					<rect x="878.6" y="909.8" class="st2" width="174.3" height="29.4"/>
				</g>
				<path class="st21" d="M985.6,551.9L985.6,551.9c-49.2,0-89.1,39.9-89.1,89.1l-19.9,182.7h178.3l19.9-182.7
					C1074.8,591.8,1034.9,551.9,985.6,551.9z"/>
				<path class="st12" d="M1017.3,443.5h-95.5v75.9l77,24.5c17.9,2.2,33.7-11.7,33.7-29.8v-55.4
					C1032.4,450.3,1025.7,443.5,1017.3,443.5z"/>
				<g>
					<path class="st22" d="M948.3,588.2c0,7.6,6.2,13.8,13.8,13.8l0,0c20.6,0,37.4-16.7,37.4-37.4V488h-51.2V588.2z"/>
					
						<ellipse transform="matrix(0.9871 -0.1602 0.1602 0.9871 -67.3255 169.5612)" class="st23" cx="1018.1" cy="502.4" rx="14.4" ry="14.4"/>
					<path class="st23" d="M966.5,437.9L966.5,437.9c-27.2,0-49.2,22-49.2,49.2v21.7c0,27.2,22,49.2,49.2,49.2l0,0
						c27.2,0,49.2-22,49.2-49.2v-21.7C1015.7,460,993.7,437.9,966.5,437.9z"/>
					<path class="st18" d="M984.4,548.7l-32.5,7.2l1.9-4.3c2.1-4.7,0.9-10.1-2.9-13.5l-8.8,8.5c-4,3.8-6.6,8.8-7.6,14.3
						c-0.8,4.1-2.5,8-5,11.3l-78.9,93.4c-26.4,24.3,11.9,66.1,34.9,40.7l67.7-128l36-11c3.8-1.2,6.5-4.5,6.8-8.5
						C996.6,552.4,990.7,547.3,984.4,548.7z"/>
				</g>
				<g>
					<path class="st18" d="M1093,651.4l-46.2,23.3l18.5,38.1l-119.1,16.5l-19.2-3.7c-3.6-0.7-7.3,0-10.4,1.9l-31.5,19.1
						c-3.4,2-3.3,7,0.2,8.9c0.7,0.4,1.6,0.6,2.4,0.6h13.3c3.6,0,7.1-0.6,10.4-1.8c5.9-2,12.2-2.3,18.2-0.8l0,0
						c2.7,0.7,5.5,0.7,8.3,0.2l8.2-1.6l144.7,4c11.6,0.3,22.5-5.5,28.7-15.4l0,0c6.1-9.6,6.7-21.7,1.6-32L1093,651.4z"/>
					<path class="st24" d="M1031.7,584.7c-14.7,7.1-20.8,24.8-13.6,39.4l29.6,60.9l53.1-25.8l-29.6-60.9
						C1064,583.7,1046.3,577.6,1031.7,584.7z"/>
					<g>
						
							<rect x="1042.5" y="664.6" transform="matrix(0.8993 -0.4373 0.4373 0.8993 -186.668 537.943)" class="st25" width="64.5" height="19.5"/>
					</g>
				</g>
				<g>
					<g>
						<circle class="st12" cx="970.4" cy="484.3" r="5.4"/>
						<circle class="st12" cx="935.8" cy="484.3" r="5.4"/>
						<path class="st13" d="M956,510.5c-5.4-1.1-7.5-2.9-7.7-4c0-0.8,1.2-3.6,2.2-5.6c1.8-4,3.9-8.5,3.9-12.2c0-1.1-0.9-2-2-2
							s-2,0.9-2,2c0,2.8-2,7.1-3.5,10.6c-1.8,3.9-2.8,6.2-2.5,7.9c0.6,3.5,4.3,6,10.8,7.3c0.1,0,0.3,0,0.4,0c0.9,0,1.8-0.7,2-1.6
							C957.7,511.8,957,510.7,956,510.5z"/>
					</g>
					<path class="st14" d="M956.4,535.9c7.7,0,13.9-6.2,13.9-13.9v-5.1h-33C937.3,527.4,945.9,535.9,956.4,535.9z"/>
				</g>
				<path class="st12" d="M998,423.2h-80.6c-9.5,0-17.1,7.7-17.1,17.1v0c0,9.5,7.7,17.1,17.1,17.1H983c2.8,11.9,10.1,22.3,20.4,28.9
					l3.6,2.3v24.3c0,3.6,2.9,6.5,6.5,6.5s6.5-2.9,6.5-6.5v-67.7C1020,433,1010.1,423.2,998,423.2z"/>
				<g>
					<g>
						<g>
							<path class="st17" d="M763.3,1090.3l-26.8,8.2c-6.5,1.4-11.1,7.1-11.1,13.7c0,1.5,1.2,2.7,2.7,2.7h65.3
								c3.1,0,5.6-2.5,5.6-5.6v-4.9c0-4-0.1-8.6-1.3-12.4L763.3,1090.3z"/>
							<path class="st18" d="M761.1,1092.9c12.1,8.1,23.8,7.1,35.3,0l40.8-100.8h-43.7L761.1,1092.9z"/>
							<path class="st20" d="M821.4,859.7l-38.8,146.9h56.4l39.7-96.8h90.2c47.5,0,86.1-38.5,86.1-86.1v0H868.1
								C846.1,823.8,827,838.5,821.4,859.7z"/>
						</g>
					</g>
					<g>
						<path class="st26" d="M845.4,992.1h-60.4c-1.5,0-2.9,1-3.3,2.5l-4,15c-0.6,2.1,1,4.2,3.3,4.2h58.2c1.4,0,2.6-0.8,3.1-2.1
							l6.1-15C849.4,994.5,847.8,992.1,845.4,992.1z"/>
					</g>
				</g>
			</g>
		</g>
		<g>
			<g>
				<g>
					<polygon class="st3" points="1078.7,1216.6 1087.4,1216.6 1131,767.6 1106.2,767.6 					"/>
					<polygon class="st3" points="1200.8,767.6 1244.4,1216.6 1253,1216.6 1225.6,767.6 					"/>
				</g>
				<rect x="1093.3" y="1114.9" class="st3" width="145.3" height="13.7"/>
				<rect x="233.9" y="1114.9" class="st2" width="926.7" height="13.7"/>
				<g>
					<polygon class="st3" points="146.7,1216.6 155.4,1216.6 199,767.6 174.2,767.6 					"/>
					<polygon class="st3" points="268.8,767.6 312.4,1216.6 321.1,1216.6 293.6,767.6 					"/>
				</g>
				<rect x="161.3" y="1114.9" class="st3" width="145.3" height="13.7"/>
			</g>
			<rect x="110.4" y="756.6" class="st2" width="1178.9" height="21.9"/>
			<rect x="110.4" y="756.6" class="st3" width="247" height="21.9"/>
		</g>
		<g id="XMLID_76_">
			<g>
				<g id="XMLID_22_">
					<g>
						<polygon class="st27" points="1137.4,756.5 1180.3,756.5 1186.5,694.6 1131.2,694.6 						"/>
					</g>
					<polygon class="st0" points="1140,680.2 1140,688.6 1185,688.6 1177.1,680.2 					"/>
					<rect x="1133" y="686.9" class="st27" width="55.1" height="5.9"/>
					<rect x="1126.6" y="690.5" class="st28" width="68.1" height="6.8"/>
				</g>
				<g id="XMLID_21_">
					<polygon class="st28" points="1135.9,741.5 1181.8,741.5 1185,709.7 1132.7,709.7 					"/>
				</g>
				
					<ellipse transform="matrix(0.9871 -0.1602 0.1602 0.9871 -101.26 194.9976)" class="st0" cx="1158.9" cy="725.6" rx="10.8" ry="10.8"/>
			</g>
		</g>
		<g id="XMLID_1_">
			<g>
				<g id="XMLID_20_">
					<g>
						<polygon class="st27" points="649.5,756.5 692.4,756.5 698.6,694.6 643.3,694.6 						"/>
					</g>
					<polygon class="st0" points="652,680.2 652,688.6 697.1,688.6 689.2,680.2 					"/>
					<rect x="645.1" y="686.9" class="st27" width="55.1" height="5.9"/>
					<rect x="638.6" y="690.5" class="st28" width="68.1" height="6.8"/>
				</g>
				<g id="XMLID_19_">
					<polygon class="st28" points="648,741.5 693.9,741.5 697.1,709.7 644.8,709.7 					"/>
				</g>
				<circle class="st0" cx="670.9" cy="725.6" r="10.8"/>
			</g>
		</g>
		<g>
			<path class="st29" d="M1055.8,1002.9c-82,39.4,82.4,74.7,134.1,213.6h27.3C1201.4,1059.9,1124.9,969.8,1055.8,1002.9z"/>
			<path class="st29" d="M1302.3,1084.3c-21.1-5.7-45.4,95-102.5,124.7v7.6h66.2C1328.2,1172.3,1343.5,1095.4,1302.3,1084.3z"/>
			<g>
				<path class="st30" d="M1221.8,753.2c-137.5,62.6-4.4,357.6-42,463.4h51.2C1340.6,1069.5,1349.1,695.2,1221.8,753.2z"/>
				<g>
					<path class="st29" d="M1234.1,823.4c14.1,67.1,38.2,237.4-33.7,393.1h5.5c29.9-65.6,46.1-140.6,48.3-223.2
						c2-76-8.7-139.7-15.2-171L1234.1,823.4z"/>
				</g>
			</g>
		</g>
		<g>
			<rect x="131.1" y="1072.8" class="st21" width="152" height="143.8"/>
			<g>
				<g>
					<path class="st31" d="M200,1036.4h-35.1c-15.7,0-28.4,12.7-28.4,28.4v19.2h12v-19.2c0-9.1,7.4-16.4,16.4-16.4H200
						c9.1,0,16.4,7.4,16.4,16.4v19.2h12v-19.2C228.4,1049.2,215.6,1036.4,200,1036.4z"/>
				</g>
				<g>
					<path class="st21" d="M190.4,1036.4h-35.1c-15.7,0-28.4,12.7-28.4,28.4v19.2h12v-19.2c0-9.1,7.4-16.4,16.4-16.4h35.1
						c9.1,0,16.4,7.4,16.4,16.4v19.2h12v-19.2C218.8,1049.2,206.1,1036.4,190.4,1036.4z"/>
				</g>
			</g>
			<rect x="85.1" y="1072.8" class="st24" width="175.5" height="143.8"/>
			<g>
				<g>
					<path class="st25" d="M85.1,1182.6v33.9h33.9C119.1,1197.8,103.9,1182.6,85.1,1182.6z"/>
				</g>
				<g>
					<path class="st25" d="M226.7,1216.6h33.9v-33.9C241.9,1182.6,226.7,1197.8,226.7,1216.6z"/>
				</g>
			</g>
			<path class="st25" d="M78.8,1085.7c0,4.5,2.1,8.7,5.8,11.3l67.4,49.3c12.4,9.1,29.3,9.1,41.8,0l67.4-49.3
				c3.6-2.6,5.8-6.9,5.8-11.3v-12.9H78.8V1085.7z"/>
			<path class="st21" d="M172.9,1137.1c-5.3,0-9.5,4.3-9.5,9.5v13.1c0,5.3,4.3,9.5,9.5,9.5c5.3,0,9.5-4.3,9.5-9.5v-13.1
				C182.4,1141.3,178.1,1137.1,172.9,1137.1z"/>
		</g>
	</g>
</g>
</svg>
